<?xml version="1.0" encoding="UTF-8"?>
<svg version="1.1" xmlns="http://www.w3.org/2000/svg" width="225" height="225">
<path d="M0 0 C74.25 0 148.5 0 225 0 C225 74.25 225 148.5 225 225 C150.75 225 76.5 225 0 225 C0 150.75 0 76.5 0 0 Z " fill="#FEFEFE" transform="translate(0,0)"/>
<path d="M0 0 C8.1851553 -0.68209627 13.9936785 2.89423745 20.46875 7.6328125 C22.82118015 9.73319656 24.31722941 12.35564622 26 15 C32.95022107 17.31674036 39.72229995 13.73188734 46.12695312 11.08398438 C50.22409025 9.45851115 53.51051337 8.49897066 58 9 C63.76334167 13.17842271 67.87881184 20.73161699 69.66796875 27.54296875 C70.00039243 30.002904 70.09952425 32.33187503 70.0625 34.8125 C70.05347656 35.60269531 70.04445312 36.39289063 70.03515625 37.20703125 C70.01775391 38.09455078 70.01775391 38.09455078 70 39 C71.134375 39.061875 72.26875 39.12375 73.4375 39.1875 C80.9012013 40.12707942 87.22889407 44.30545421 92 50 C92 50.66 92 51.32 92 52 C92.66 52 93.32 52 94 52 C94 52.66 94 53.32 94 54 C91.525 54.495 91.525 54.495 89 55 C89 55.99 89 56.98 89 58 C90.65 58 92.3 58 94 58 C93.02589565 64.5424919 91.57099423 68.21133938 87 73 C86.29875 73.9075 85.5975 74.815 84.875 75.75 C83 78 83 78 80 80 C81.02336127 83.75232464 82.6818171 85.82134535 85.4375 88.4375 C88.49247636 91.37767557 90.58117719 93.92088441 92 98 C91.86138903 103.54443887 88.32618888 107.5264568 84.75 111.5 C79.61725113 116.16613534 74.86553165 120.28361709 68 122 C68.32613281 122.8353125 68.65226563 123.670625 68.98828125 124.53125 C70.10481962 128.35938157 70.23199762 131.51948551 70.1875 135.5 C70.17783203 137.40265625 70.17783203 137.40265625 70.16796875 139.34375 C70.01606235 142.6503637 69.62618134 145.75387592 69 149 C66.69 148.01 64.38 147.02 62 146 C62.33 146.598125 62.66 147.19625 63 147.8125 C64 150 64 150 64 153 C54.86916899 157.21422969 45.49774435 157.16591478 36 154 C34.31736298 153.02711231 32.6474182 152.03140247 31 151 C30.44570312 151.98742187 29.89140625 152.97484375 29.3203125 153.9921875 C28.58871328 155.28655535 27.85693301 156.58082087 27.125 157.875 C26.76019531 158.52597656 26.39539063 159.17695313 26.01953125 159.84765625 C24.51339464 162.50393354 23.16980999 164.83019001 21 167 C13.01137915 168.5117908 5.96904643 165.70480917 -1 162 C-3.23824281 160.45494433 -5.04342872 158.90222208 -7 157 C-7.99 157.61875 -7.99 157.61875 -9 158.25 C-9.99 158.8275 -10.98 159.405 -12 160 C-13.093125 160.70125 -14.18625 161.4025 -15.3125 162.125 C-24.05850876 166.4481222 -35.92738002 165.75418821 -45 163 C-44.33333333 160.33333333 -43.66666667 157.66666667 -43 155 C-46.465 155.99 -46.465 155.99 -50 157 C-51.65764444 151.93533932 -52.2474201 147.69986151 -52.1875 142.3125 C-52.18105469 141.02988281 -52.17460938 139.74726563 -52.16796875 138.42578125 C-52.03602731 135.73478952 -51.8059597 133.54683267 -51 131 C-51.61746094 130.93683594 -52.23492187 130.87367188 -52.87109375 130.80859375 C-60.22483456 129.74526745 -64.624503 127.03825099 -70 122 C-70.63679688 121.41605469 -71.27359375 120.83210938 -71.9296875 120.23046875 C-75.08100192 117.01380449 -75.08100192 117.01380449 -76 115 C-75.87861157 109.03768587 -73.73987402 105.39578516 -70.4375 100.6875 C-67.2809827 96.67806063 -67.2809827 96.67806063 -66 92 C-68.23699577 90.37761317 -70.57697539 88.9771559 -72.93359375 87.53515625 C-75 86 -75 86 -76 83 C-76.598125 82.71125 -77.19625 82.4225 -77.8125 82.125 C-80.72346154 80.62793406 -82.14012721 78.65696113 -84 76 C-84 75.34 -84 74.68 -84 74 C-84.66 73.67 -85.32 73.34 -86 73 C-85 72 -85 72 -82.4375 71.9375 C-81.633125 71.958125 -80.82875 71.97875 -80 72 C-81.25541557 69.48916886 -82.50063488 69.12874554 -85 68 C-83.40436999 60.07687169 -79.59767227 55.59458392 -73 51 C-72.34 51 -71.68 51 -71 51 C-71 50.34 -71 49.68 -71 49 C-65.34244531 47.19003784 -59.9129304 45.64270983 -54 45 C-53.99742188 44.27296875 -53.99484375 43.5459375 -53.9921875 42.796875 C-53.66634109 34.32486827 -51.22728086 28.29108993 -47 21 C-46.34 21 -45.68 21 -45 21 C-44.8453125 20.071875 -44.8453125 20.071875 -44.6875 19.125 C-44 17 -44 17 -41 15 C-35.60255753 15.36694603 -30.66920536 16.89452762 -25.5625 18.5625 C-24.83095703 18.79646484 -24.09941406 19.03042969 -23.34570312 19.27148438 C-21.56219821 19.84267222 -19.78086417 20.42063123 -18 21 C-17.81824219 20.36191406 -17.63648437 19.72382812 -17.44921875 19.06640625 C-17.19785156 18.24011719 -16.94648437 17.41382812 -16.6875 16.5625 C-16.44386719 15.73878906 -16.20023437 14.91507813 -15.94921875 14.06640625 C-15.63597656 13.38449219 -15.32273437 12.70257813 -15 12 C-14.01 11.67 -13.02 11.34 -12 11 C-11.63451555 9.67511887 -11.3062434 8.33981486 -11 7 C-9.5625 4.75 -9.5625 4.75 -8 3 C-7.34 3 -6.68 3 -6 3 C-6 2.34 -6 1.68 -6 1 C-5.01 1 -4.02 1 -3 1 C-2.505 2.98 -2.505 2.98 -2 5 C-1.34 5 -0.68 5 0 5 C0 3.35 0 1.7 0 0 Z " fill="#F7BCCA" transform="translate(108,29)"/>
<path d="M0 0 C0.99 0.495 0.99 0.495 2 1 C2 9.25 2 17.5 2 26 C4.64 26 7.28 26 10 26 C13 28.375 13 28.375 15 31 C15 31.66 15 32.32 15 33 C15.67546875 32.77183594 16.3509375 32.54367188 17.046875 32.30859375 C18.38492188 31.87740234 18.38492188 31.87740234 19.75 31.4375 C20.63171875 31.14746094 21.5134375 30.85742188 22.421875 30.55859375 C25.07834316 29.98302565 26.47031106 30.10751629 29 31 C28.21753906 31.25394531 27.43507813 31.50789063 26.62890625 31.76953125 C25.61699219 32.11371094 24.60507813 32.45789063 23.5625 32.8125 C22.55316406 33.14894531 21.54382813 33.48539063 20.50390625 33.83203125 C19.67761719 34.21746094 18.85132813 34.60289063 18 35 C17.67 35.99 17.34 36.98 17 38 C28.385 37.505 28.385 37.505 40 37 C36.96474514 39.02350324 35.80573798 39.32124018 32.3125 39.625 C31.50425781 39.69976562 30.69601563 39.77453125 29.86328125 39.8515625 C29.24839844 39.90054688 28.63351563 39.94953125 28 40 C28.350625 40.598125 28.70125 41.19625 29.0625 41.8125 C30 44 30 44 29 47 C32.63 46.67 36.26 46.34 40 46 C37.09907498 47.93395001 36.10325263 48.30131941 32.8125 48.625 C31.554375 48.74875 30.29625 48.8725 29 49 C31.48952921 51.66735273 33.63408134 53.55746343 37 55 C37 55.66 37 56.32 37 57 C38.485 57.495 38.485 57.495 40 58 C47.54958185 66.71105598 49.42956235 76.68142101 49.53125 87.96875 C48.89442557 91.6023953 47.93975736 92.82713586 45 95 C44.01 95 43.02 95 42 95 C42 95.66 42 96.32 42 97 C34.55473758 98.8613156 28.23322137 98.06663468 21 96 C21 95.34 21 94.68 21 94 C19.02 93.34 17.04 92.68 15 92 C15 91.34 15 90.68 15 90 C13.515 89.505 13.515 89.505 12 89 C6.40082896 82.43545465 3.5061549 73.35915971 2 65 C1.83564453 66.09054688 1.83564453 66.09054688 1.66796875 67.203125 C-1.53881279 87.53881279 -1.53881279 87.53881279 -5 91 C-4.67 91.99 -4.34 92.98 -4 94 C-3.67 94.99 -3.34 95.98 -3 97 C-0.2241982 90.43901392 1.0026554 84.04007955 2 77 C3.36476611 79.66967406 4.58773457 82.36207077 5.75 85.125 C11.16648103 97.39490348 11.16648103 97.39490348 21 106 C21 106.66 21 107.32 21 108 C21.66 108 22.32 108 23 108 C21.63984079 114.39274831 18.68081943 120.31918057 14 125 C5.23691875 126.28598677 -2.88147895 123.53330744 -10.09375 118.5546875 C-11.75 117.1875 -11.75 117.1875 -14 115 C-14.66 115.4125 -15.32 115.825 -16 116.25 C-16.99 116.8275 -17.98 117.405 -19 118 C-20.093125 118.70125 -21.18625 119.4025 -22.3125 120.125 C-31.05850876 124.4481222 -42.92738002 123.75418821 -52 121 C-51.33333333 118.33333333 -50.66666667 115.66666667 -50 113 C-53.465 113.99 -53.465 113.99 -57 115 C-58.65764444 109.93533932 -59.2474201 105.69986151 -59.1875 100.3125 C-59.18105469 99.02988281 -59.17460938 97.74726563 -59.16796875 96.42578125 C-59.03602731 93.73478952 -58.8059597 91.54683267 -58 89 C-58.61746094 88.93683594 -59.23492187 88.87367188 -59.87109375 88.80859375 C-67.22483456 87.74526745 -71.624503 85.03825099 -77 80 C-77.63679688 79.41605469 -78.27359375 78.83210938 -78.9296875 78.23046875 C-82.08100192 75.01380449 -82.08100192 75.01380449 -83 73 C-82.93068825 66.70803316 -80.30328439 62.62275081 -76.9375 57.5625 C-76.22883789 56.46518555 -76.22883789 56.46518555 -75.50585938 55.34570312 C-74.34823137 53.55664166 -73.17561628 51.77729286 -72 50 C-69.94921875 50.71614583 -67.8984375 51.43229167 -65.84765625 52.1484375 C-58.07923144 54.47150555 -51.05071755 55.27179447 -42.9375 55.125 C-41.97650391 55.11597656 -41.01550781 55.10695312 -40.02539062 55.09765625 C-37.68332195 55.07435208 -35.34180208 55.04164058 -33 55 C-37.82954545 58.86864973 -37.82954545 58.86864973 -39.9921875 60.53515625 C-45.73433927 65.19320883 -49.31681222 70.63499111 -53 77 C-52.505 77.495 -52.505 77.495 -52 78 C-51.01 77.505 -51.01 77.505 -50 77 C-49.505 82.94 -49.505 82.94 -49 89 C-48.34 89 -47.68 89 -47 89 C-45.515 81.08 -45.515 81.08 -44 73 C-43.34 73 -42.68 73 -42 73 C-41.90203125 72.2575 -41.8040625 71.515 -41.703125 70.75 C-40.52509904 66.14260956 -37.19830689 63.38401503 -34 60 C-33.236875 59.0925 -32.47375 58.185 -31.6875 57.25 C-27.88421837 54.06585724 -23.64873414 52.61577361 -19 51 C-18.979375 49.72125 -18.95875 48.4425 -18.9375 47.125 C-18.92589844 46.40570313 -18.91429688 45.68640625 -18.90234375 44.9453125 C-18.87350758 42.91814596 -18.87350758 42.91814596 -20 41 C-21.72704913 40.25501015 -21.72704913 40.25501015 -23.81640625 39.7109375 C-24.96206055 39.38222656 -24.96206055 39.38222656 -26.13085938 39.046875 C-26.93330078 38.82515625 -27.73574219 38.6034375 -28.5625 38.375 C-29.36880859 38.14554688 -30.17511719 37.91609375 -31.00585938 37.6796875 C-33.00192203 37.11275846 -35.00071919 36.55547357 -37 36 C-32.79623226 34.6874699 -30.20056865 35.76879884 -26 37 C-22.70780572 37.16847091 -22.70780572 37.16847091 -20 37 C-24.39326125 33.17043622 -29.2204054 30.51508373 -34.3125 27.75 C-35.14845703 27.29109375 -35.98441406 26.8321875 -36.84570312 26.359375 C-38.89483188 25.23528151 -40.94626165 24.11564244 -43 23 C-42.34 22.67 -41.68 22.34 -41 22 C-38.32744469 23.1746192 -35.77275011 24.40557786 -33.1875 25.75 C-32.47529297 26.1109375 -31.76308594 26.471875 -31.02929688 26.84375 C-27.98079515 28.40043173 -25.0349943 29.97794356 -22.13671875 31.8046875 C-20.03740569 33.3036786 -20.03740569 33.3036786 -17.625 32.375 C-16.75875 31.92125 -15.8925 31.4675 -15 31 C-8.30769231 28 -8.30769231 28 -5 28 C-5.2165625 27.04738281 -5.433125 26.09476563 -5.65625 25.11328125 C-5.9346875 23.85902344 -6.213125 22.60476562 -6.5 21.3125 C-6.7784375 20.07113281 -7.056875 18.82976562 -7.34375 17.55078125 C-7.89354126 14.57601782 -8.13795705 12.00631398 -8 9 C-6.19523895 12.25641668 -5.26051195 15.45336795 -4.375 19.0625 C-3.98441406 20.62677734 -3.98441406 20.62677734 -3.5859375 22.22265625 C-3 25 -3 25 -3 28 C-2.01 28 -1.02 28 0 28 C0 18.76 0 9.52 0 0 Z " fill="#F1A3B8" transform="translate(115,71)"/>
<path d="M0 0 C8.38459181 -0.76223562 13.19229906 2.46153271 20 7 C20 7.99 20 8.98 20 10 C20.99 10.33 21.98 10.66 23 11 C23 11.99 23 12.98 23 14 C23.66 14 24.32 14 25 14 C28.56955691 23.37008688 27.99809052 33.76459874 24.65625 43.109375 C23.89069503 44.98135553 23.89069503 44.98135553 24 47 C24.43570313 46.46890625 24.87140625 45.9378125 25.3203125 45.390625 C28.90532459 41.138273 32.2178869 37.93447849 37 35 C37.495 34.46375 37.99 33.9275 38.5 33.375 C42.726517 29.50069275 48.6462796 29.68931406 54.0625 29.75 C54.75666016 29.74226563 55.45082031 29.73453125 56.16601562 29.7265625 C60.21850071 29.74195656 63.35489452 30.20942187 67 32 C67 32.66 67 33.32 67 34 C68.65 34 70.3 34 72 34 C72 34.66 72 35.32 72 36 C72.928125 36.37125 72.928125 36.37125 73.875 36.75 C76.52534901 38.30902883 77.14374887 39.04204154 78 42 C77.85890774 44.7277836 77.4506495 47.29610299 77 50 C76.34 50 75.68 50 75 50 C74.690625 50.61875 74.38125 51.2375 74.0625 51.875 C73.375 53.25 72.6875 54.625 72 56 C71.34 56 70.68 56 70 56 C69.96132812 56.56332031 69.92265625 57.12664062 69.8828125 57.70703125 C68.55261109 61.1620234 65.83664402 62.69003565 62.875 64.6875 C62.318125 65.09033203 61.76125 65.49316406 61.1875 65.90820312 C55.39090872 69.89502915 49.90131241 70.14692978 43.0625 70.0625 C41.62583984 70.04896484 41.62583984 70.04896484 40.16015625 70.03515625 C39.44730469 70.02355469 38.73445313 70.01195313 38 70 C37.505 66.535 37.505 66.535 37 63 C39.97 62.34 42.94 61.68 46 61 C39.4 61 32.8 61 26 61 C26.33 59.68 26.66 58.36 27 57 C29.06640625 55.953125 29.06640625 55.953125 31.5625 55.25 C32.38878906 55.00765625 33.21507812 54.7653125 34.06640625 54.515625 C34.70449219 54.34546875 35.34257812 54.1753125 36 54 C31.73383684 55.13764351 28.43513689 56 24 56 C23.5978125 55.071875 23.5978125 55.071875 23.1875 54.125 C22.04443152 51.7004767 22.04443152 51.7004767 19 50 C16.03 50 13.06 50 10 50 C10 41.42 10 32.84 10 24 C9.67 32.91 9.34 41.82 9 51 C8.01 51 7.02 51 6 51 C4.68 46.38 3.36 41.76 2 37 C2.99 43.93 2.99 43.93 4 51 C2.783125 51.433125 1.56625 51.86625 0.3125 52.3125 C-2.35865622 53.29066988 -4.30205495 54.20371148 -6.6875 55.8125 C-9 57 -9 57 -11.125 56.33203125 C-14.8926795 54.586408 -18.60730987 52.74911762 -22.3125 50.875 C-23.05306641 50.50246094 -23.79363281 50.12992188 -24.55664062 49.74609375 C-26.37201217 48.83255194 -28.18613282 47.91652513 -30 47 C-25.93382967 49.46458125 -21.81878861 51.83466519 -17.6875 54.1875 C-17.04232422 54.55552734 -16.39714844 54.92355469 -15.73242188 55.30273438 C-14.1552301 56.20231783 -12.57765435 57.10122804 -11 58 C-11 58.99 -11 59.98 -11 61 C-14.3 60.67 -17.6 60.34 -21 60 C-20.30132812 60.18175781 -19.60265625 60.36351562 -18.8828125 60.55078125 C-17.51769531 60.92783203 -17.51769531 60.92783203 -16.125 61.3125 C-15.22007813 61.55613281 -14.31515625 61.79976562 -13.3828125 62.05078125 C-11 63 -11 63 -9 66 C-8.92094936 68.33199388 -8.91201231 70.66832622 -9 73 C-11.38636546 73.23863655 -13.77271185 73.47543044 -16.16015625 73.703125 C-17.92192702 73.88729911 -19.68122648 74.10059845 -21.43359375 74.359375 C-30.57936183 75.62086025 -39.34224494 74.07168855 -48 71 C-48 70.34 -48 69.68 -48 69 C-48.886875 68.773125 -49.77375 68.54625 -50.6875 68.3125 C-54.53910658 66.78639173 -56.26478941 65.08587862 -59 62 C-59.72123047 61.31744141 -59.72123047 61.31744141 -60.45703125 60.62109375 C-63.34691026 57.69937035 -63.99365609 56.19983322 -64.125 52.0625 C-63.00962441 46.70051092 -60.3558372 42.80894642 -56.03125 39.48828125 C-47.73125556 34.08399382 -38.66898481 34.0757933 -29 35 C-23.92502647 36.34533419 -20.09744761 38.78057688 -16 42 C-14.35202764 42.71162443 -12.68834592 43.39031953 -11 44 C-11.15984375 43.00742188 -11.3196875 42.01484375 -11.484375 40.9921875 C-13.29391734 28.22913888 -12.13522764 17.39399419 -6 6 C-5.34 6 -4.68 6 -4 6 C-4 5.34 -4 4.68 -4 4 C-3.34 4 -2.68 4 -2 4 C-2 3.34 -2 2.68 -2 2 C-1.34 2 -0.68 2 0 2 C0 1.34 0 0.68 0 0 Z " fill="#EF93AE" transform="translate(106,48)"/>
<path d="M0 0 C8.19529814 -0.68294151 13.99173861 2.90565817 20.48046875 7.63671875 C22 9 22 9 24.0625 12.1875 C26.39245872 15.56969814 28.07027662 16.10688105 32 17 C31.01 17.66 30.02 18.32 29 19 C29.49113281 20.68609375 29.49113281 20.68609375 29.9921875 22.40625 C31.17745135 27.14730541 31.22794919 31.63763058 31.125 36.5 C31.11597656 37.32242188 31.10695313 38.14484375 31.09765625 38.9921875 C31.07436865 40.99492083 31.03850959 42.99750154 31 45 C28.51953125 43.73046875 28.51953125 43.73046875 26 42 C25.6875 38.3125 25.6875 38.3125 26 35 C25.01 35 24.02 35 23 35 C23 34.34 23 33.68 23 33 C22.34 33 21.68 33 21 33 C20.67 32.01 20.34 31.02 20 30 C19.34 29.67 18.68 29.34 18 29 C18 28.01 18 27.02 18 26 C17.12601563 25.56880859 17.12601563 25.56880859 16.234375 25.12890625 C14.85671523 24.43285088 13.48923139 23.71564353 12.140625 22.96484375 C7.34979869 20.36156416 3.4378125 19.38841518 -2 19 C-2 19.66 -2 20.32 -2 21 C-2.66 21 -3.32 21 -4 21 C-4 21.66 -4 22.32 -4 23 C-4.66 23 -5.32 23 -6 23 C-6 23.66 -6 24.32 -6 25 C-6.66 25.33 -7.32 25.66 -8 26 C-9.09771083 27.93744525 -9.09771083 27.93744525 -10.0625 30.25 C-10.57490234 31.40242188 -10.57490234 31.40242188 -11.09765625 32.578125 C-12.98122157 37.6335817 -13.16003753 42.4617692 -13.125 47.8125 C-13.12306641 48.52083984 -13.12113281 49.22917969 -13.11914062 49.95898438 C-13.0796733 54.72576078 -12.78290476 59.30257144 -12 64 C-15.6726512 62.53093952 -18.77050025 61.15456106 -22.0625 58.9375 C-27.70088914 55.21856248 -32.87591823 54.65849212 -39.4375 54.6875 C-40.16259766 54.67138672 -40.88769531 54.65527344 -41.63476562 54.63867188 C-49.10335823 54.63196155 -55.18847749 57.22163705 -61 62 C-63.27052806 65.34604135 -64.71613448 68.67529423 -65.5625 72.625 C-64.7035977 76.25147636 -62.46337786 78.22869991 -60 81 C-60 81.66 -60 82.32 -60 83 C-59.195625 83.4021875 -59.195625 83.4021875 -58.375 83.8125 C-55.58333333 85.20833333 -52.79166667 86.60416667 -50 88 C-50 88.66 -50 89.32 -50 90 C-38.66438057 92.88193714 -28.43280834 93.46757821 -16.8984375 91.27734375 C-14 91 -14 91 -11 93 C-11.76183594 93.32871094 -12.52367188 93.65742187 -13.30859375 93.99609375 C-21.98580341 97.99346 -30.08764855 102.97186752 -34.0625 112.0625 C-34.371875 113.031875 -34.68125 114.00125 -35 115 C-35.66 115 -36.32 115 -37 115 C-37.66 122.59 -38.32 130.18 -39 138 C-39.33 138 -39.66 138 -40 138 C-40.12375 137.21625 -40.2475 136.4325 -40.375 135.625 C-40.79117993 132.85942178 -40.79117993 132.85942178 -43 131 C-43.4140625 128.3984375 -43.4140625 128.3984375 -43.625 125.375 C-43.69976562 124.37210937 -43.77453125 123.36921875 -43.8515625 122.3359375 C-43.90054688 121.56507813 -43.94953125 120.79421875 -44 120 C-44.99 120.66 -45.98 121.32 -47 122 C-45.85345826 113.28314157 -39.10975388 106.59654222 -32.5 101.3125 C-31.01101741 100.19352061 -29.51500972 99.08348031 -28 98 C-29.90072266 98.03480469 -29.90072266 98.03480469 -31.83984375 98.0703125 C-33.53905655 98.08908833 -35.2382758 98.10728657 -36.9375 98.125 C-37.76830078 98.14175781 -38.59910156 98.15851563 -39.45507812 98.17578125 C-51.44507677 98.26908863 -64.37111989 94.857619 -73.875 87.25 C-76 85 -76 85 -76 83 C-76.5775 82.773125 -77.155 82.54625 -77.75 82.3125 C-80.59739809 80.65151778 -82.12067193 78.68475439 -84 76 C-84 75.34 -84 74.68 -84 74 C-84.66 73.67 -85.32 73.34 -86 73 C-85 72 -85 72 -82.4375 71.9375 C-81.633125 71.958125 -80.82875 71.97875 -80 72 C-81.25541557 69.48916886 -82.50063488 69.12874554 -85 68 C-83.40436999 60.07687169 -79.59767227 55.59458392 -73 51 C-72.34 51 -71.68 51 -71 51 C-71 50.34 -71 49.68 -71 49 C-65.34244531 47.19003784 -59.9129304 45.64270983 -54 45 C-53.99742188 44.27296875 -53.99484375 43.5459375 -53.9921875 42.796875 C-53.66634109 34.32486827 -51.22728086 28.29108993 -47 21 C-46.34 21 -45.68 21 -45 21 C-44.8453125 20.071875 -44.8453125 20.071875 -44.6875 19.125 C-44 17 -44 17 -41 15 C-35.60255753 15.36694603 -30.66920536 16.89452762 -25.5625 18.5625 C-24.83095703 18.79646484 -24.09941406 19.03042969 -23.34570312 19.27148438 C-21.56219821 19.84267222 -19.78086417 20.42063123 -18 21 C-17.81824219 20.36191406 -17.63648437 19.72382812 -17.44921875 19.06640625 C-17.19785156 18.24011719 -16.94648437 17.41382812 -16.6875 16.5625 C-16.44386719 15.73878906 -16.20023437 14.91507813 -15.94921875 14.06640625 C-15.63597656 13.38449219 -15.32273437 12.70257813 -15 12 C-14.01 11.67 -13.02 11.34 -12 11 C-11.63451555 9.67511887 -11.3062434 8.33981486 -11 7 C-9.5625 4.75 -9.5625 4.75 -8 3 C-7.34 3 -6.68 3 -6 3 C-6 2.34 -6 1.68 -6 1 C-5.01 1 -4.02 1 -3 1 C-2.505 2.98 -2.505 2.98 -2 5 C-1.34 5 -0.68 5 0 5 C0 3.35 0 1.7 0 0 Z " fill="#F7BDCA" transform="translate(108,29)"/>
<path d="M0 0 C0.66 0.33 1.32 0.66 2 1 C2 9.25 2 17.5 2 26 C4.64 26 7.28 26 10 26 C13 28.375 13 28.375 15 31 C15 31.66 15 32.32 15 33 C16.01320313 32.65775391 16.01320313 32.65775391 17.046875 32.30859375 C17.93890625 32.02113281 18.8309375 31.73367187 19.75 31.4375 C20.63171875 31.14746094 21.5134375 30.85742188 22.421875 30.55859375 C25.07834316 29.98302565 26.47031106 30.10751629 29 31 C28.21753906 31.25394531 27.43507813 31.50789063 26.62890625 31.76953125 C25.61699219 32.11371094 24.60507813 32.45789063 23.5625 32.8125 C22.55316406 33.14894531 21.54382813 33.48539063 20.50390625 33.83203125 C19.67761719 34.21746094 18.85132813 34.60289063 18 35 C17.67 35.99 17.34 36.98 17 38 C28.385 37.505 28.385 37.505 40 37 C36.96474514 39.02350324 35.80573798 39.32124018 32.3125 39.625 C31.50425781 39.69976562 30.69601563 39.77453125 29.86328125 39.8515625 C29.24839844 39.90054688 28.63351563 39.94953125 28 40 C28.350625 40.598125 28.70125 41.19625 29.0625 41.8125 C30 44 30 44 29 47 C32.63 46.67 36.26 46.34 40 46 C37.09907498 47.93395001 36.10325263 48.30131941 32.8125 48.625 C31.554375 48.74875 30.29625 48.8725 29 49 C31.48952921 51.66735273 33.63408134 53.55746343 37 55 C37 55.66 37 56.32 37 57 C38.485 57.495 38.485 57.495 40 58 C47.54958185 66.71105598 49.42956235 76.68142101 49.53125 87.96875 C48.89442557 91.6023953 47.93975736 92.82713586 45 95 C44.01 95 43.02 95 42 95 C42 95.66 42 96.32 42 97 C34.55473758 98.8613156 28.23322137 98.06663468 21 96 C21 95.34 21 94.68 21 94 C18.03 93.01 18.03 93.01 15 92 C15 91.34 15 90.68 15 90 C14.01 89.67 13.02 89.34 12 89 C5.1780195 81.00181596 2.44525737 70.26318227 2 60 C0.88625 59.855625 -0.2275 59.71125 -1.375 59.5625 C-5 59 -5 59 -7 58 C-7.10183594 58.72574219 -7.20367187 59.45148438 -7.30859375 60.19921875 C-8.07339613 63.29731653 -9.23748505 65.21088295 -11.0625 67.8125 C-11.61035156 68.60269531 -12.15820312 69.39289063 -12.72265625 70.20703125 C-13.14417969 70.79871094 -13.56570312 71.39039063 -14 72 C-14.495 71.01 -14.495 71.01 -15 70 C-13.56005076 67.08410278 -11.90112499 64.33226561 -10.25 61.53125 C-9.63125 60.27828125 -9.63125 60.27828125 -9 59 C-9.33 58.34 -9.66 57.68 -10 57 C-15.28 62.28 -20.56 67.56 -26 73 C-26 68.95607032 -24.51908749 67.99868382 -21.8125 65.0625 C-21.03519531 64.20785156 -20.25789063 63.35320312 -19.45703125 62.47265625 C-17.09786332 60.09848566 -14.65532732 58.0327639 -12 56 C-12.94875 55.38125 -13.8975 54.7625 -14.875 54.125 C-19.20965337 50.59798252 -19.28912683 46.33154877 -20 41 C-25.61 39.35 -31.22 37.7 -37 36 C-32.36484438 34.84121109 -30.49944488 35.68119719 -26 37 C-22.70780572 37.16847091 -22.70780572 37.16847091 -20 37 C-24.39326125 33.17043622 -29.2204054 30.51508373 -34.3125 27.75 C-35.14845703 27.29109375 -35.98441406 26.8321875 -36.84570312 26.359375 C-38.89483188 25.23528151 -40.94626165 24.11564244 -43 23 C-42.34 22.67 -41.68 22.34 -41 22 C-38.32744469 23.1746192 -35.77275011 24.40557786 -33.1875 25.75 C-32.47529297 26.1109375 -31.76308594 26.471875 -31.02929688 26.84375 C-27.98079515 28.40043173 -25.0349943 29.97794356 -22.13671875 31.8046875 C-20.03740569 33.3036786 -20.03740569 33.3036786 -17.625 32.375 C-16.325625 31.694375 -16.325625 31.694375 -15 31 C-8.30769231 28 -8.30769231 28 -5 28 C-5.2165625 27.04738281 -5.433125 26.09476563 -5.65625 25.11328125 C-5.9346875 23.85902344 -6.213125 22.60476562 -6.5 21.3125 C-6.7784375 20.07113281 -7.056875 18.82976562 -7.34375 17.55078125 C-7.89354126 14.57601782 -8.13795705 12.00631398 -8 9 C-6.19523895 12.25641668 -5.26051195 15.45336795 -4.375 19.0625 C-3.98441406 20.62677734 -3.98441406 20.62677734 -3.5859375 22.22265625 C-3 25 -3 25 -3 28 C-2.01 28 -1.02 28 0 28 C0 18.76 0 9.52 0 0 Z " fill="#EF93AE" transform="translate(115,71)"/>
<path d="M0 0 C8.19234637 3.37546565 12.6822977 12.62858345 15.9921875 20.359375 C16.49105469 21.66648438 16.49105469 21.66648438 17 23 C17.36996094 23.94359375 17.73992187 24.8871875 18.12109375 25.859375 C19.14759838 29.52741821 19.23003527 32.69502708 19.1875 36.5 C19.18105469 37.7684375 19.17460937 39.036875 19.16796875 40.34375 C19.01606235 43.6503637 18.62618134 46.75387592 18 50 C14.535 48.515 14.535 48.515 11 47 C11.33 47.598125 11.66 48.19625 12 48.8125 C13 51 13 51 13 54 C3.86916899 58.21422969 -5.50225565 58.16591478 -15 55 C-17.8125 53.4375 -17.8125 53.4375 -20 52 C-21.485 51.505 -21.485 51.505 -23 51 C-23 50.34 -23 49.68 -23 49 C-23.75152344 48.76539063 -24.50304687 48.53078125 -25.27734375 48.2890625 C-33.51766921 44.38761716 -37.80107746 32.11604366 -41 24 C-41.33773437 25.12019531 -41.67546875 26.24039063 -42.0234375 27.39453125 C-42.47370046 28.86726636 -42.92423553 30.33991831 -43.375 31.8125 C-43.59671875 32.55048828 -43.8184375 33.28847656 -44.046875 34.04882812 C-44.26601562 34.76103516 -44.48515625 35.47324219 -44.7109375 36.20703125 C-44.90993652 36.8616333 -45.10893555 37.51623535 -45.31396484 38.19067383 C-46 40 -46 40 -48 43 C-48.144375 42.2575 -48.28875 41.515 -48.4375 40.75 C-48.90707741 38.0892578 -48.90707741 38.0892578 -49.75 36 C-50 34 -50 34 -48.6171875 31.71484375 C-43.56921164 23.24058477 -43.41201003 12.6040959 -43 3 C-42.67 3 -42.34 3 -42 3 C-41.76925781 4.03898438 -41.53851563 5.07796875 -41.30078125 6.1484375 C-37.95616874 21.00697025 -37.95616874 21.00697025 -29 33 C-29 33.66 -29 34.32 -29 35 C-28.38125 35.144375 -27.7625 35.28875 -27.125 35.4375 C-25 36 -25 36 -23 37 C-23 37.66 -23 38.32 -23 39 C-20.43761495 39.16861758 -17.87511576 39.33495773 -15.3125 39.5 C-14.59126953 39.54769531 -13.87003906 39.59539062 -13.12695312 39.64453125 C-9.41171286 39.88203519 -5.72305126 40.05874637 -2 40 C-2 39.34 -2 38.68 -2 38 C-1.195625 37.71125 -0.39125 37.4225 0.4375 37.125 C3.1326468 36.26737432 3.1326468 36.26737432 4 34 C4.74803846 25.20748232 3.77704274 17.82887221 0.77734375 9.546875 C0 7 0 7 1 5 C0.34 5 -0.32 5 -1 5 C-0.67 3.35 -0.34 1.7 0 0 Z " fill="#F8BCCA" transform="translate(159,128)"/>
<path d="M0 0 C0.66 0.33 1.32 0.66 2 1 C2 9.25 2 17.5 2 26 C4.64 26 7.28 26 10 26 C13 28.375 13 28.375 15 31 C15 31.66 15 32.32 15 33 C16.01320313 32.65775391 16.01320313 32.65775391 17.046875 32.30859375 C17.93890625 32.02113281 18.8309375 31.73367187 19.75 31.4375 C20.63171875 31.14746094 21.5134375 30.85742188 22.421875 30.55859375 C25.07834316 29.98302565 26.47031106 30.10751629 29 31 C28.21753906 31.25394531 27.43507813 31.50789063 26.62890625 31.76953125 C25.61699219 32.11371094 24.60507813 32.45789063 23.5625 32.8125 C22.55316406 33.14894531 21.54382813 33.48539063 20.50390625 33.83203125 C19.67761719 34.21746094 18.85132813 34.60289063 18 35 C17.67 35.99 17.34 36.98 17 38 C28.385 37.505 28.385 37.505 40 37 C33.14125398 41.57249735 23.92663318 40.09894549 16 40 C16.09539062 40.59167969 16.19078125 41.18335938 16.2890625 41.79296875 C16.39992187 42.58316406 16.51078125 43.37335938 16.625 44.1875 C16.74101562 44.96480469 16.85703125 45.74210937 16.9765625 46.54296875 C17 49 17 49 15 54 C17.64 57.3 20.28 60.6 23 64 C22.67 64.66 22.34 65.32 22 66 C21.38511719 65.21753906 20.77023438 64.43507813 20.13671875 63.62890625 C19.32847656 62.61699219 18.52023438 61.60507813 17.6875 60.5625 C16.88699219 59.55316406 16.08648437 58.54382813 15.26171875 57.50390625 C13.18021795 54.78672091 13.18021795 54.78672091 10 54 C12.4764244 60.37783044 15.16140431 66.59128631 18.14453125 72.75 C18.42683594 73.4925 18.70914063 74.235 19 75 C18.67 75.66 18.34 76.32 18 77 C13.88891233 70.55929599 10.60017687 64.18872429 8 57 C7.4121875 57.31453125 6.824375 57.6290625 6.21875 57.953125 C3.14400562 59.40388467 0.37928698 59.75862236 -3 60 C-5.4375 59.0625 -5.4375 59.0625 -7 58 C-7.10183594 58.72574219 -7.20367187 59.45148438 -7.30859375 60.19921875 C-8.07339613 63.29731653 -9.23748505 65.21088295 -11.0625 67.8125 C-11.61035156 68.60269531 -12.15820312 69.39289063 -12.72265625 70.20703125 C-13.14417969 70.79871094 -13.56570312 71.39039063 -14 72 C-14.495 71.01 -14.495 71.01 -15 70 C-13.56005076 67.08410278 -11.90112499 64.33226561 -10.25 61.53125 C-9.63125 60.27828125 -9.63125 60.27828125 -9 59 C-9.33 58.34 -9.66 57.68 -10 57 C-15.28 62.28 -20.56 67.56 -26 73 C-26 68.95607032 -24.51908749 67.99868382 -21.8125 65.0625 C-21.03519531 64.20785156 -20.25789063 63.35320312 -19.45703125 62.47265625 C-17.09786332 60.09848566 -14.65532732 58.0327639 -12 56 C-12.94875 55.38125 -13.8975 54.7625 -14.875 54.125 C-19.20965337 50.59798252 -19.28912683 46.33154877 -20 41 C-25.61 39.35 -31.22 37.7 -37 36 C-32.36484438 34.84121109 -30.49944488 35.68119719 -26 37 C-22.70780572 37.16847091 -22.70780572 37.16847091 -20 37 C-24.39326125 33.17043622 -29.2204054 30.51508373 -34.3125 27.75 C-35.14845703 27.29109375 -35.98441406 26.8321875 -36.84570312 26.359375 C-38.89483188 25.23528151 -40.94626165 24.11564244 -43 23 C-42.34 22.67 -41.68 22.34 -41 22 C-38.32744469 23.1746192 -35.77275011 24.40557786 -33.1875 25.75 C-32.47529297 26.1109375 -31.76308594 26.471875 -31.02929688 26.84375 C-27.98079515 28.40043173 -25.0349943 29.97794356 -22.13671875 31.8046875 C-20.03740569 33.3036786 -20.03740569 33.3036786 -17.625 32.375 C-16.325625 31.694375 -16.325625 31.694375 -15 31 C-8.30769231 28 -8.30769231 28 -5 28 C-5.2165625 27.04738281 -5.433125 26.09476563 -5.65625 25.11328125 C-5.9346875 23.85902344 -6.213125 22.60476562 -6.5 21.3125 C-6.7784375 20.07113281 -7.056875 18.82976562 -7.34375 17.55078125 C-7.89354126 14.57601782 -8.13795705 12.00631398 -8 9 C-6.19523895 12.25641668 -5.26051195 15.45336795 -4.375 19.0625 C-3.98441406 20.62677734 -3.98441406 20.62677734 -3.5859375 22.22265625 C-3 25 -3 25 -3 28 C-2.01 28 -1.02 28 0 28 C0 18.76 0 9.52 0 0 Z " fill="#620C3A" transform="translate(115,71)"/>
<path d="M0 0 C5.7686005 4.18223536 9.8975018 11.75119115 11.66796875 18.57421875 C12.14880944 22.08718427 12.06006177 25.45635567 12 29 C11.18917969 29.02578125 10.37835938 29.0515625 9.54296875 29.078125 C-1.14875268 29.62578011 -11.52445982 32.14334487 -20.25 38.6875 C-22 40 -22 40 -24 40 C-24.33 40.99 -24.66 41.98 -25 43 C-27.5625 44.6875 -27.5625 44.6875 -30 46 C-29.855625 45.48695312 -29.71125 44.97390625 -29.5625 44.4453125 C-28.13825595 38.5703058 -27.7796938 32.89170561 -27.75 26.875 C-27.74097656 26.1236377 -27.73195312 25.37227539 -27.72265625 24.59814453 C-27.74979315 19.43195759 -28.58054574 14.96808993 -30 10 C-6.23295548 -1.33563332 -6.23295548 -1.33563332 0 0 Z " fill="#EE80A4" transform="translate(166,38)"/>
<path d="M0 0 C3.07617188 1.07421875 3.07617188 1.07421875 6.15234375 2.1484375 C13.92076856 4.47150555 20.94928245 5.27179447 29.0625 5.125 C30.02349609 5.11597656 30.98449219 5.10695313 31.97460938 5.09765625 C34.31667805 5.07435208 36.65819792 5.04164058 39 5 C34.17045455 8.86864973 34.17045455 8.86864973 32.0078125 10.53515625 C22.77176161 18.02747139 18.13940888 28.06967148 14 39 C5.87758317 38.16910559 0.92494601 35.55322887 -5 30 C-5.63679688 29.41605469 -6.27359375 28.83210938 -6.9296875 28.23046875 C-10.08100192 25.01380449 -10.08100192 25.01380449 -11 23 C-10.93068825 16.70803316 -8.30328439 12.62275081 -4.9375 7.5625 C-4.46505859 6.83095703 -3.99261719 6.09941406 -3.50585938 5.34570312 C-2.34823137 3.55664166 -1.17561628 1.77729286 0 0 Z " fill="#EE80A4" transform="translate(43,121)"/>
<path d="M0 0 C3.87908742 0.80312369 7.43082107 1.91785975 11.1484375 3.28125 C12.98535156 3.94640625 12.98535156 3.94640625 14.859375 4.625 C17.7734375 5.78125 17.7734375 5.78125 18.7734375 6.78125 C18.53340662 8.87294764 18.29122208 10.96441733 18.0390625 13.0546875 C17.20759594 21.58944719 17.7985542 29.4636758 19.7734375 37.78125 C20.1121599 39.44682979 20.44689574 41.1132394 20.7734375 42.78125 C20.0721875 42.39453125 19.3709375 42.0078125 18.6484375 41.609375 C15.69606838 39.98878108 12.73638291 38.38241785 9.7734375 36.78125 C9.03738281 36.3790625 8.30132812 35.976875 7.54296875 35.5625 C0.21860465 31.70295485 -7.03663405 30.50166037 -15.2265625 29.78125 C-16.14166154 20.22354897 -14.11132467 13.98067221 -9.2265625 5.78125 C-8.5665625 5.78125 -7.9065625 5.78125 -7.2265625 5.78125 C-7.1234375 5.1625 -7.0203125 4.54375 -6.9140625 3.90625 C-5.6904839 0.12427979 -3.72625394 -0.25262739 0 0 Z " fill="#ED81A4" transform="translate(70.2265625,44.21875)"/>
<path d="M0 0 C6.98737136 3.01866701 11.93285487 10.22672118 15 17 C15 22.50098154 11.28471096 26.57254338 7.75 30.5 C5.57478737 32.47746603 3.40711026 34.39964033 1.125 36.25 C0.50882813 36.75015625 -0.10734375 37.2503125 -0.7421875 37.765625 C-3.75887931 39.41488903 -6.60821329 39.65673484 -10 40 C-10.40089844 39.17757812 -10.80179688 38.35515625 -11.21484375 37.5078125 C-16.28813515 27.54529469 -22.15651463 18.8051324 -32 13 C-32 12.67 -32 12.34 -32 12 C-30.91203125 11.85304688 -29.8240625 11.70609375 -28.703125 11.5546875 C-20.00050346 10.26522641 -12.94217321 8.57115982 -5.22265625 4.20703125 C-3 3 -3 3 -1 3 C-0.67 2.01 -0.34 1.02 0 0 Z " fill="#ED81A4" transform="translate(185,110)"/>
<path d="M0 0 C1.36476611 2.66967406 2.58773457 5.36207077 3.75 8.125 C9.16648103 20.39490348 9.16648103 20.39490348 19 29 C19 29.66 19 30.32 19 31 C19.66 31 20.32 31 21 31 C19.63984079 37.39274831 16.68081943 43.31918057 12 48 C3.88607476 49.19072278 -2.91500909 46.86074615 -10 43 C-12.02608965 41.43496206 -13.39282041 40.00897449 -15 38 C-13.62219103 33.98139049 -11.73478207 31.23201518 -9 28 C-2.64577551 20.33852621 -1.29158938 9.58495274 0 0 Z " fill="#EF80A4" transform="translate(117,148)"/>
<path d="M0 0 C1.875 0.875 1.875 0.875 3.125 2.625 C3.9707901 5.16237029 4.02264761 7.21734296 3.875 9.875 C4.865 9.875 5.855 9.875 6.875 9.875 C6.875 10.535 6.875 11.195 6.875 11.875 C6.215 11.875 5.555 11.875 4.875 11.875 C4.875 13.195 4.875 14.515 4.875 15.875 C5.535 15.875 6.195 15.875 6.875 15.875 C6.875 16.535 6.875 17.195 6.875 17.875 C9.10442748 17.73320962 11.33353628 17.58640302 13.5625 17.4375 C14.80386719 17.35628906 16.04523438 17.27507813 17.32421875 17.19140625 C20.74208989 16.95144906 20.74208989 16.95144906 23.53125 16.34375 C25.98081427 15.85383715 28.19348291 15.77527586 30.6875 15.8125 C31.87279297 15.82603516 31.87279297 15.82603516 33.08203125 15.83984375 C33.96955078 15.85724609 33.96955078 15.85724609 34.875 15.875 C35.37 18.35 35.37 18.35 35.875 20.875 C35.06417969 20.90078125 34.25335938 20.9265625 33.41796875 20.953125 C22.72624732 21.50078011 12.35054018 24.01834487 3.625 30.5625 C1.875 31.875 1.875 31.875 -0.125 31.875 C-0.455 32.865 -0.785 33.855 -1.125 34.875 C-3.6875 36.5625 -3.6875 36.5625 -6.125 37.875 C-5.980625 37.36195312 -5.83625 36.84890625 -5.6875 36.3203125 C-4.26325595 30.4453058 -3.9046938 24.76670561 -3.875 18.75 C-3.86597656 17.9986377 -3.85695312 17.24727539 -3.84765625 16.47314453 C-3.87479315 11.30695759 -4.70554574 6.84308993 -6.125 1.875 C-3.9269253 0.54045464 -2.59886397 -0.15287435 0 0 Z " fill="#D7678D" transform="translate(142.125,46.125)"/>
<path d="M0 0 C4.13289616 0.4508614 8.06999676 0.98636601 12.09375 2.03125 C17.43666358 3.24256759 22.60757759 3.22369727 28.0625 3.125 C29.50399414 3.11146484 29.50399414 3.11146484 30.97460938 3.09765625 C33.31667805 3.07435208 35.65819792 3.04164058 38 3 C33.17045455 6.86864973 33.17045455 6.86864973 31.0078125 8.53515625 C21.77176161 16.02747139 17.13940888 26.06967148 13 37 C12.01 37 11.02 37 10 37 C9.85502797 32.86829715 9.77949805 29.71663134 11 25.75 C12.40279829 20.48950642 12.15996789 15.41224683 12 10 C10.700625 9.62875 10.700625 9.62875 9.375 9.25 C5.74869162 7.90692282 3.00632882 6.43369476 0 4 C0 2.68 0 1.36 0 0 Z " fill="#DA658E" transform="translate(44,123)"/>
<path d="M0 0 C2.475 0.495 2.475 0.495 5 1 C4.835 2.2375 4.67 3.475 4.5 4.75 C3.48269694 14.14162387 3.81902335 22.81442683 6 32 C6.3387224 33.66557979 6.67345824 35.3319894 7 37 C6.29875 36.61328125 5.5975 36.2265625 4.875 35.828125 C1.92263088 34.20753108 -1.03705459 32.60116785 -4 31 C-4.73605469 30.5978125 -5.47210938 30.195625 -6.23046875 29.78125 C-13.58784807 25.90430761 -20.77719811 24.77088768 -29 24 C-29 20.7 -29 17.4 -29 14 C-24.05 15.65 -19.1 17.3 -14 19 C-14 19.66 -14 20.32 -14 21 C-10.7 21 -7.4 21 -4 21 C-2.35817798 17.71635596 -1.72860837 16.29830746 -1.3671875 12.890625 C-1.28339844 12.13652344 -1.19960937 11.38242187 -1.11328125 10.60546875 C-0.99533203 9.43951172 -0.99533203 9.43951172 -0.875 8.25 C-0.78863281 7.45722656 -0.70226562 6.66445313 -0.61328125 5.84765625 C-0.40199946 3.89916859 -0.20007533 1.94967024 0 0 Z " fill="#D8658C" transform="translate(84,50)"/>
<path d="M0 0 C1.36476611 2.66967406 2.58773457 5.36207077 3.75 8.125 C9.16648103 20.39490348 9.16648103 20.39490348 19 29 C19 29.66 19 30.32 19 31 C19.66 31 20.32 31 21 31 C20.67 32.65 20.34 34.3 20 36 C14.50847458 35.38983051 14.50847458 35.38983051 12.125 33.5625 C11 32 11 32 11 30 C10.34 30 9.68 30 9 30 C8.4225 29.195625 7.845 28.39125 7.25 27.5625 C4.540574 24.47676483 3.00592666 24.27313136 -1 24 C-1.66 26.31 -2.32 28.62 -3 31 C-3.66 31 -4.32 31 -5 31 C-5.268125 31.721875 -5.53625 32.44375 -5.8125 33.1875 C-6.98982498 35.97590126 -8.39145884 38.44095724 -10 41 C-11.32 40.34 -12.64 39.68 -14 39 C-14 34.26796455 -13.1518442 33.55846588 -10.25 30 C-3.44016037 20.94026636 -1.49033194 11.05983179 0 0 Z " fill="#D7698E" transform="translate(117,148)"/>
<path d="M0 0 C0.66 0 1.32 0 2 0 C2.495 2.475 2.495 2.475 3 5 C-9.26335878 12 -9.26335878 12 -14 12 C-14 15.3 -14 18.6 -14 22 C-13.34 22 -12.68 22 -12 22 C-11.32451422 24.05962852 -10.65995688 26.12284322 -10 28.1875 C-9.62875 29.33605469 -9.2575 30.48460937 -8.875 31.66796875 C-8.09369447 34.64320812 -7.81636694 36.95283896 -8 40 C-8.66 40 -9.32 40 -10 40 C-10.40089844 39.17757812 -10.80179688 38.35515625 -11.21484375 37.5078125 C-16.28813515 27.54529469 -22.15651463 18.8051324 -32 13 C-32 12.67 -32 12.34 -32 12 C-30.91203125 11.85304688 -29.8240625 11.70609375 -28.703125 11.5546875 C-20.00050346 10.26522641 -12.94217321 8.57115982 -5.22265625 4.20703125 C-3 3 -3 3 -1 3 C-0.67 2.01 -0.34 1.02 0 0 Z " fill="#D4698B" transform="translate(185,110)"/>
<path d="M0 0 C1.65 0 3.3 0 5 0 C5.66 2.97 6.32 5.94 7 9 C8.11375 8.87625 8.11375 8.87625 9.25 8.75 C12 9 12 9 14.1875 10.8125 C16 13 16 13 18 16 C20.05003955 17.19232613 20.05003955 17.19232613 22 18 C21.67 18.33 21.34 18.66 21 19 C14.60465116 18.30232558 14.60465116 18.30232558 12 17 C11.89816406 17.72574219 11.79632813 18.45148438 11.69140625 19.19921875 C10.92660387 22.29731653 9.76251495 24.21088295 7.9375 26.8125 C7.11572266 27.99779297 7.11572266 27.99779297 6.27734375 29.20703125 C5.85582031 29.79871094 5.43429688 30.39039063 5 31 C4.67 30.34 4.34 29.68 4 29 C5.43994924 26.08410278 7.09887501 23.33226561 8.75 20.53125 C9.1625 19.6959375 9.575 18.860625 10 18 C9.67 17.34 9.34 16.68 9 16 C3.72 21.28 -1.56 26.56 -7 32 C-7 27.95607032 -5.51908749 26.99868382 -2.8125 24.0625 C-2.03519531 23.20785156 -1.25789063 22.35320312 -0.45703125 21.47265625 C1.90213668 19.09848566 4.34467268 17.0327639 7 15 C6.030625 14.38125 5.06125 13.7625 4.0625 13.125 C1.79441766 11.28385081 1.07728791 10.31838732 0.37890625 7.44140625 C0.14932205 4.95130073 0.00970935 2.50015637 0 0 Z " fill="#5A0F32" transform="translate(96,112)"/>
<path d="M0 0 C2.25525345 1.07335592 4.50375548 2.15807558 6.75 3.25 C7.38421875 3.55035156 8.0184375 3.85070312 8.671875 4.16015625 C12.41687422 5.99364545 15.24803883 7.85887261 18 11 C17.67 11.33 17.34 11.66 17 12 C11.18416161 11.95618954 5.92390463 11.28260309 1 8 C0.67 7.01 0.34 6.02 0 5 C0.33 4.67 0.66 4.34 1 4 C0.34 3.34 -0.32 2.68 -1 2 C-0.67 1.34 -0.34 0.68 0 0 Z " fill="#E68DAC" transform="translate(78,97)"/>
<path d="M0 0 C0.66 0.33 1.32 0.66 2 1 C0.8037292 5.08725857 -0.80156709 8.53151519 -2.98046875 12.1875 C-4.57698017 15.02574252 -5.77021651 17.98703045 -7 21 C-7.82638376 18.10765685 -8 16.11257569 -8 13 C-9.32 12.67 -10.64 12.34 -12 12 C-8.04 8.04 -4.08 4.08 0 0 Z " fill="#EA92B2" transform="translate(105,127)"/>
<path d="M0 0 C2.33881007 2.12619097 3.94038762 3.99776492 5 7 C4.6455853 13.73387939 -0.22385438 18.68981981 -5 23 C-6.63377642 24.05287814 -8.29181597 25.0727001 -10 26 C-8.83242263 22.67689517 -7.85051143 20.16638868 -5 18 C-4.01 18 -3.02 18 -2 18 C-1.67 17.01 -1.34 16.02 -1 15 C-0.484375 14.195625 0.03125 13.39125 0.5625 12.5625 C2.32616732 9.90826544 2.32616732 9.90826544 2 6 C1.01 6.33 0.02 6.66 -1 7 C-0.67 4.69 -0.34 2.38 0 0 Z " fill="#DC8CA7" transform="translate(195,120)"/>
<path d="M0 0 C0.99 0.66 1.98 1.32 3 2 C3 2.66 3 3.32 3 4 C2.01 4 1.02 4 0 4 C0 3.34 0 2.68 0 2 C-0.74765625 2.2165625 -1.4953125 2.433125 -2.265625 2.65625 C-3.74289063 3.07390625 -3.74289063 3.07390625 -5.25 3.5 C-6.22453125 3.7784375 -7.1990625 4.056875 -8.203125 4.34375 C-11 5 -11 5 -15 5 C-15 5.66 -15 6.32 -15 7 C-19.455 7.495 -19.455 7.495 -24 8 C-21.21401663 5.21401663 -17.87186973 4.23157845 -14.25 2.875 C-13.54617187 2.59785156 -12.84234375 2.32070313 -12.1171875 2.03515625 C-7.96167696 0.4671848 -4.50875506 -0.51415628 0 0 Z " fill="#DB8DA7" transform="translate(166,38)"/>
<path d="M0 0 C1.65 0 3.3 0 5 0 C5.33872513 1.41538717 5.67074624 2.83237963 6 4.25 C6.185625 5.03890625 6.37125 5.8278125 6.5625 6.640625 C7 9 7 9 7 13 C2.125 11.125 2.125 11.125 1 10 C0.76712992 8.31816052 0.58735834 6.6287584 0.4375 4.9375 C0.35371094 4.01839844 0.26992187 3.09929687 0.18359375 2.15234375 C0.09271484 1.08693359 0.09271484 1.08693359 0 0 Z " fill="#510B32" transform="translate(96,112)"/>
<path d="M0 0 C0.66 0 1.32 0 2 0 C3 5 4 10 5 15 C4.29875 14.61328125 3.5975 14.2265625 2.875 13.828125 C-2.69832834 10.76885238 -8.29206196 7.80012055 -14 5 C-10.28272326 3.86416544 -8.52948291 4.33329974 -5 6 C-5 6.66 -5 7.32 -5 8 C-3.02 8 -1.04 8 1 8 C0.67 5.36 0.34 2.72 0 0 Z " fill="#D0738F" transform="translate(86,72)"/>
<path d="M0 0 C0.33 0.66 0.66 1.32 1 2 C0.12988281 2.12955078 0.12988281 2.12955078 -0.7578125 2.26171875 C-4.91632602 3.00970221 -8.02995395 3.64913751 -11.1875 6.5625 C-14.26778934 9.23208409 -16.00176686 9.71441192 -20 10 C-15.375 5.125 -15.375 5.125 -12 4 C-12 3.34 -12 2.68 -12 2 C-10.37787941 1.47026689 -8.75218416 0.95146893 -7.125 0.4375 C-6.22007813 0.14746094 -5.31515625 -0.14257812 -4.3828125 -0.44140625 C-2 -1 -2 -1 0 0 Z " fill="#F0CAD5" transform="translate(49,76)"/>
<path d="M0 0 C1.65 0.33 3.3 0.66 5 1 C5 2.65 5 4.3 5 6 C4.34 6 3.68 6 3 6 C2.896875 7.27875 2.79375 8.5575 2.6875 9.875 C2.51171875 12.0546875 2.51171875 12.0546875 2 14 C1.01 14.66 0.02 15.32 -1 16 C-0.67 10.72 -0.34 5.44 0 0 Z " fill="#D76B8E" transform="translate(84,50)"/>
<path d="M0 0 C2.50795008 3.76192512 2.23628327 5.82887431 2.1875 10.3125 C2.17783203 12.25576172 2.17783203 12.25576172 2.16796875 14.23828125 C2.01854445 17.58469047 1.63641553 20.71609585 1 24 C-2.465 22.02 -2.465 22.02 -6 20 C-6 19.67 -6 19.34 -6 19 C-4.35 19 -2.7 19 -1 19 C-0.67 12.73 -0.34 6.46 0 0 Z " fill="#E8C7D0" transform="translate(176,154)"/>
<path d="M0 0 C0.33 0.99 0.66 1.98 1 3 C0.01 3.66 -0.98 4.32 -2 5 C0.97 5.33 3.94 5.66 7 6 C7 6.33 7 6.66 7 7 C1.39 7 -4.22 7 -10 7 C-9.67 5.68 -9.34 4.36 -9 3 C-6.93359375 1.953125 -6.93359375 1.953125 -4.4375 1.25 C-3.61121094 1.00765625 -2.78492188 0.7653125 -1.93359375 0.515625 C-1.29550781 0.34546875 -0.65742188 0.1753125 0 0 Z " fill="#E289AA" transform="translate(142,102)"/>
<path d="M0 0 C0.99 0.33 1.98 0.66 3 1 C1.45052978 5.39016562 -0.66966004 9.66966004 -4 13 C-5.62139437 13.12494616 -7.24884122 13.17571624 -8.875 13.1875 C-9.75929688 13.20167969 -10.64359375 13.21585938 -11.5546875 13.23046875 C-14 13 -14 13 -17 11 C-13.04 11 -9.08 11 -5 11 C-5 10.01 -5 9.02 -5 8 C-4.01 8 -3.02 8 -2 8 C-1.34 5.36 -0.68 2.72 0 0 Z " fill="#DC8DA6" transform="translate(133,183)"/>
<path d="M0 0 C2.64 0.66 5.28 1.32 8 2 C6.25 3.5625 6.25 3.5625 4 5 C1.75 4.6875 1.75 4.6875 0 4 C0 4.66 0 5.32 0 6 C0.66 6.33 1.32 6.66 2 7 C1.34 7 0.68 7 0 7 C0 8.65 0 10.3 0 12 C-1.98 12 -3.96 12 -6 12 C-4.02 8.04 -2.04 4.08 0 0 Z " fill="#E88EAC" transform="translate(108,129)"/>
<path d="M0 0 C4.6020291 1.40519973 8.80148112 3.2933185 13.0625 5.5 C16.97933018 7.51533351 20.87412928 9.44012449 25 11 C25 11.99 25 12.98 25 14 C19.88086372 12.02014862 15.10479371 9.54749295 10.25 7 C9.37472656 6.54882812 8.49945313 6.09765625 7.59765625 5.6328125 C6.76621094 5.19710937 5.93476562 4.76140625 5.078125 4.3125 C4.31918945 3.91675781 3.56025391 3.52101563 2.77832031 3.11328125 C1 2 1 2 0 0 Z " fill="#761F3D" transform="translate(72,93)"/>
<path d="M0 0 C1.1446875 1.175625 1.1446875 1.175625 2.3125 2.375 C4.90891805 5.07257717 4.90891805 5.07257717 8 7 C8 7.66 8 8.32 8 9 C8.721875 9.12375 9.44375 9.2475 10.1875 9.375 C12.95721894 9.9904931 15.3970354 10.88444374 18 12 C18 12.99 18 13.98 18 15 C10.98117704 13.24529426 4.60460472 8.56389737 0 3 C0 2.01 0 1.02 0 0 Z " fill="#DB91A8" transform="translate(34,144)"/>
<path d="M0 0 C0.5775 0.20625 1.155 0.4125 1.75 0.625 C1.255 1.285 0.76 1.945 0.25 2.625 C-1.73316621 6.59133241 -1.47357461 9.22803262 -1.25 13.625 C-1.91 13.625 -2.57 13.625 -3.25 13.625 C-4.24 9.665 -5.23 5.705 -6.25 1.625 C-2.25 -0.375 -2.25 -0.375 0 0 Z " fill="#CF6C8C" transform="translate(142.25,46.375)"/>
<path d="M0 0 C0.99 0 1.98 0 3 0 C3.33 2.64 3.66 5.28 4 8 C4.99 8 5.98 8 7 8 C7 8.66 7 9.32 7 10 C6.34 10 5.68 10 5 10 C4.67 10.66 4.34 11.32 4 12 C3.34 10.68 2.68 9.36 2 8 C1.01 8.33 0.02 8.66 -1 9 C-1.80967438 6.08517222 -2.21845993 4.53886783 -1.0625 1.6875 C-0.711875 1.130625 -0.36125 0.57375 0 0 Z " fill="#DC618B" transform="translate(142,48)"/>
<path d="M0 0 C1.92809857 3.79806352 3.74810513 7.64674904 5.5625 11.5 C5.87896484 12.16386719 6.19542969 12.82773438 6.52148438 13.51171875 C7.99697871 16.65066847 9.23529462 19.62027119 10 23 C3.83199778 17.47449801 0.6102301 8.68567752 -2 1 C-1.34 0.67 -0.68 0.34 0 0 Z " fill="#6E1938" transform="translate(124,125)"/>
<path d="M0 0 C0.33 0.66 0.66 1.32 1 2 C2.41655793 2.0272415 3.83327045 2.04650467 5.25 2.0625 C6.03890625 2.07410156 6.8278125 2.08570313 7.640625 2.09765625 C9.91747823 2.00341564 11.80580616 1.57552625 14 1 C15.99963028 0.96154557 18.00051633 0.95455719 20 1 C19 3 19 3 17.296875 3.61328125 C9.72266402 4.88853106 2.29523274 4.244687 -5 2 C-5 1.67 -5 1.34 -5 1 C-3.35 0.67 -1.7 0.34 0 0 Z " fill="#EBC9CF" transform="translate(149,181)"/>
<path d="M0 0 C1.25541557 3.76624671 0.37061958 5.37188934 -1 9 C-0.01 9.99 0.98 10.98 2 12 C1.34 12.66 0.68 13.32 0 14 C-1.65 13.01 -3.3 12.02 -5 11 C-4.54917531 9.53932801 -4.08906463 8.08151968 -3.625 6.625 C-3.36976562 5.81289062 -3.11453125 5.00078125 -2.8515625 4.1640625 C-2 2 -2 2 0 0 Z " fill="#EDC7CE" transform="translate(28,86)"/>
<path d="M0 0 C0.33 0.99 0.66 1.98 1 3 C0.0390625 4.8671875 0.0390625 4.8671875 -1.375 6.875 C-3.40386254 9.92110387 -4.65145212 12.28215593 -5 16 C-5.99 16 -6.98 16 -8 16 C-8.33 17.32 -8.66 18.64 -9 20 C-8.55502003 14.45540829 -7.03112247 10.71629132 -3.9375 6.0625 C-3.37192383 5.17981445 -3.37192383 5.17981445 -2.79492188 4.27929688 C-1.87421123 2.84578537 -0.93863006 1.4218428 0 0 Z " fill="#E08EA8" transform="translate(41,124)"/>
<path d="M0 0 C1.75 0.125 1.75 0.125 4 1 C6.25 4.0625 6.25 4.0625 8 7 C7.01 7 6.02 7 5 7 C4.67 7.99 4.34 8.98 4 10 C1.997499 7.997499 1.06784629 6.593341 0 4 C0 2.68 0 1.36 0 0 Z " fill="#E28FAD" transform="translate(125,125)"/>
<path d="M0 0 C0.99 0.33 1.98 0.66 3 1 C2.34 2.98 1.68 4.96 1 7 C0.030625 7.12375 -0.93875 7.2475 -1.9375 7.375 C-3.4534375 7.684375 -3.4534375 7.684375 -5 8 C-5.33 8.66 -5.66 9.32 -6 10 C-5.58578031 5.16743695 -3.53586014 3.17320782 0 0 Z " fill="#50082D" transform="translate(102,101)"/>
<path d="M0 0 C-2.68841859 2.25245881 -4.64641875 3.88213958 -8 5 C-8 4.01 -8 3.02 -8 2 C-8.65226562 2.08378906 -9.30453125 2.16757813 -9.9765625 2.25390625 C-14.88249144 2.82554104 -19.13127185 3.15311982 -24 2 C-24 1.67 -24 1.34 -24 1 C-20.93758173 0.83170223 -17.87508013 0.66530338 -14.8125 0.5 C-13.94818359 0.45230469 -13.08386719 0.40460938 -12.19335938 0.35546875 C-8.12442913 0.13721196 -4.07665227 -0.06752219 0 0 Z " fill="#CC6B89" transform="translate(82,126)"/>
<path d="M0 0 C0.66 1.32 1.32 2.64 2 4 C1.3503125 4.556875 1.3503125 4.556875 0.6875 5.125 C-1.46152985 7.51281095 -2.64757984 10.1019568 -4 13 C-4.66 13 -5.32 13 -6 13 C-6 13.66 -6 14.32 -6 15 C-6.99 14.67 -7.98 14.34 -9 14 C-8.34 14 -7.68 14 -7 14 C-6.81824219 13.36191406 -6.63648437 12.72382812 -6.44921875 12.06640625 C-6.19785156 11.24011719 -5.94648437 10.41382813 -5.6875 9.5625 C-5.32205078 8.32693359 -5.32205078 8.32693359 -4.94921875 7.06640625 C-4.63597656 6.38449219 -4.32273437 5.70257813 -4 5 C-3.01 4.67 -2.02 4.34 -1 4 C-0.26676204 1.98491642 -0.26676204 1.98491642 0 0 Z " fill="#ECC7D2" transform="translate(97,36)"/>
<path d="M0 0 C0.66 0.66 1.32 1.32 2 2 C-0.91365174 5.11459324 -2.77480981 6.86513999 -7.19140625 7.1328125 C-7.97386719 7.13023437 -8.75632812 7.12765625 -9.5625 7.125 C-10.74005859 7.12886719 -10.74005859 7.12886719 -11.94140625 7.1328125 C-14 7 -14 7 -16 6 C-16 5.34 -16 4.68 -16 4 C-15.09636719 4.04640625 -14.19273438 4.0928125 -13.26171875 4.140625 C-11.49248047 4.19476563 -11.49248047 4.19476563 -9.6875 4.25 C-8.51574219 4.29640625 -7.34398438 4.3428125 -6.13671875 4.390625 C-2.90299431 4.32434604 -2.90299431 4.32434604 -1.08203125 1.984375 C-0.72496094 1.32953125 -0.36789063 0.6746875 0 0 Z " fill="#FDE9F2" transform="translate(132,191)"/>
<path d="M0 0 C0.99 0.33 1.98 0.66 3 1 C2.63258872 7.12352138 1.21348564 9.78651436 -3 14 C-3.66 14 -4.32 14 -5 14 C-5 13.34 -5 12.68 -5 12 C-4.34 11.443125 -3.68 10.88625 -3 10.3125 C-0.2845897 7.17280684 -0.77181792 5.03121671 -1 1 C-0.67 0.67 -0.34 0.34 0 0 Z " fill="#FDBCCF" transform="translate(107,168)"/>
<path d="M0 0 C0.99 0.33 1.98 0.66 3 1 C-1.29 5.29 -5.58 9.58 -10 14 C-10 9.88181592 -8.33436007 8.84145243 -5.5625 5.875 C-4.73878906 4.98554688 -3.91507812 4.09609375 -3.06640625 3.1796875 C-1 1 -1 1 0 0 Z " fill="#66132D" transform="translate(99,130)"/>
<path d="M0 0 C0.66 0.33 1.32 0.66 2 1 C1.67 2.32 1.34 3.64 1 5 C3.31 5 5.62 5 8 5 C8 5.33 8 5.66 8 6 C5.69 6.33 3.38 6.66 1 7 C0.34 8.98 -0.32 10.96 -1 13 C-1.33 13 -1.66 13 -2 13 C-2.05391993 11.20866022 -2.09275571 9.41686101 -2.125 7.625 C-2.14820312 6.62726563 -2.17140625 5.62953125 -2.1953125 4.6015625 C-2 2 -2 2 0 0 Z " fill="#4E062D" transform="translate(130,105)"/>
<path d="M0 0 C1.32830615 3.98491845 0.23204404 5.40048548 -1.4375 9.1875 C-1.91058594 10.27417969 -2.38367187 11.36085937 -2.87109375 12.48046875 C-3.42990234 13.72763672 -3.42990234 13.72763672 -4 15 C-4.99 15 -5.98 15 -7 15 C-6.36441803 12.07108101 -5.42419834 9.60437336 -4.0625 6.9375 C-3.72347656 6.26589844 -3.38445313 5.59429687 -3.03515625 4.90234375 C-2 3 -2 3 0 0 Z " fill="#CD6C8D" transform="translate(61,145)"/>
<path d="M0 0 C0.66 0 1.32 0 2 0 C2.6875 1.6875 2.6875 1.6875 3 4 C2.319375 5.051875 2.319375 5.051875 1.625 6.125 C-0.70559635 10.24836278 -0.73725461 14.33400427 -1 19 C-1.33 19 -1.66 19 -2 19 C-2.19818283 12.29481414 -2.30844801 6.34823202 0 0 Z " fill="#FAAEC6" transform="translate(89,53)"/>
<path d="M0 0 C1.875 0.1875 1.875 0.1875 4 1 C5.25 3.5625 5.25 3.5625 6 6 C4.02 6.33 2.04 6.66 0 7 C-1.125 2.25 -1.125 2.25 0 0 Z " fill="#E58CA8" transform="translate(130,97)"/>
<path d="M0 0 C3.71171927 1.23723976 5.2553349 3.2553349 8 6 C10.16620544 7.29519995 10.16620544 7.29519995 12 8 C9.69 8.33 7.38 8.66 5 9 C4.16094435 7.87926138 3.32892169 6.75325453 2.5 5.625 C2.0359375 4.99851562 1.571875 4.37203125 1.09375 3.7265625 C0 2 0 2 0 0 Z " fill="#F0CBD7" transform="translate(128,39)"/>
<path d="M0 0 C0 3.67034745 -1.0752892 5.0999431 -3 8.1875 C-3.556875 9.08855469 -4.11375 9.98960937 -4.6875 10.91796875 C-5.120625 11.60503906 -5.55375 12.29210937 -6 13 C-7.19298271 9.03483443 -6.73961634 6.81058817 -5 3 C-2.9375 1.6875 -2.9375 1.6875 -1 1 C-0.67 0.67 -0.34 0.34 0 0 Z " fill="#FDE9F1" transform="translate(39,126)"/>
<path d="M0 0 C3.9252025 3.70090521 6.94580156 7.54959656 10 12 C9.67 12.66 9.34 13.32 9 14 C8.37351563 13.22914063 7.74703125 12.45828125 7.1015625 11.6640625 C5.87566406 10.15972656 5.87566406 10.15972656 4.625 8.625 C3.81289062 7.62726563 3.00078125 6.62953125 2.1640625 5.6015625 C0.09734084 3.03639494 0.09734084 3.03639494 -2 1 C-1.34 0.67 -0.68 0.34 0 0 Z " fill="#772140" transform="translate(128,123)"/>
<path d="M0 0 C4.875 1.75 4.875 1.75 6 4 C5.34 4.66 4.68 5.32 4 6 C0.55834679 5.64700993 -1.06872538 4.95418308 -4 3 C-2.68 2.67 -1.36 2.34 0 2 C0 1.34 0 0.68 0 0 Z " fill="#670F3B" transform="translate(123,97)"/>
<path d="M0 0 C0.66 0 1.32 0 2 0 C2.74926071 3.66305234 3.2380014 6.42355152 2 10 C1.34 10 0.68 10 0 10 C-0.33 10.66 -0.66 11.32 -1 12 C-0.67 8.04 -0.34 4.08 0 0 Z " fill="#E499AD" transform="translate(181,88)"/>
<path d="M0 0 C0.66 0.33 1.32 0.66 2 1 C-1.49087093 5.0042343 -3.64951939 6.62671065 -9 7 C-3.51752022 1.21293801 -3.51752022 1.21293801 0 0 Z " fill="#EBC6CC" transform="translate(38,79)"/>
<path d="M0 0 C0.33 0 0.66 0 1 0 C1.05406122 1.93719378 1.09282025 3.87481921 1.125 5.8125 C1.14820313 6.89144531 1.17140625 7.97039062 1.1953125 9.08203125 C1 12 1 12 -1 15 C-4.125 15.6875 -4.125 15.6875 -7 16 C-7 15.34 -7 14.68 -7 14 C-6.195625 13.71125 -5.39125 13.4225 -4.5625 13.125 C-1.8673532 12.26737432 -1.8673532 12.26737432 -1 10 C-0.77377919 8.29636178 -0.59111527 6.58671299 -0.4375 4.875 C-0.35371094 3.96492187 -0.26992187 3.05484375 -0.18359375 2.1171875 C-0.12300781 1.41851562 -0.06242188 0.71984375 0 0 Z " fill="#F8ABBE" transform="translate(164,152)"/>
<path d="M0 0 C1.65 1.32 3.3 2.64 5 4 C4.625 6.9375 4.625 6.9375 4 10 C3.01 10.495 3.01 10.495 2 11 C2 8.36 2 5.72 2 3 C0.68 2.67 -0.64 2.34 -2 2 C-1.34 1.34 -0.68 0.68 0 0 Z " fill="#DB819D" transform="translate(95,137)"/>
<path d="M0 0 C3 1 3 1 4 3 C4.039992 4.99960012 4.04346799 7.00047242 4 9 C3.67 8.34 3.34 7.68 3 7 C2.01 7 1.02 7 0 7 C-0.93423645 3.98968256 -1.04449911 3.13349732 0 0 Z " fill="#D989A5" transform="translate(93,111)"/>
<path d="M0 0 C1.32 0.33 2.64 0.66 4 1 C4 1.66 4 2.32 4 3 C7.3 3.66 10.6 4.32 14 5 C9.81924919 7.0903754 9.41186737 7.22667078 5.25 6.125 C4.05117187 5.81949219 4.05117187 5.81949219 2.828125 5.5078125 C2.22484375 5.34023437 1.6215625 5.17265625 1 5 C1 4.01 1 3.02 1 2 C0.67 1.34 0.34 0.68 0 0 Z " fill="#E184A1" transform="translate(74,104)"/>
<path d="M0 0 C1.41750563 0.11509661 2.83401169 0.24253658 4.25 0.375 C5.03890625 0.44460937 5.8278125 0.51421875 6.640625 0.5859375 C9 1 9 1 13 3 C8.71 3 4.42 3 0 3 C0 2.01 0 1.02 0 0 Z " fill="#FEB1C9" transform="translate(59,74)"/>
<path d="M0 0 C1.32 0.33 2.64 0.66 4 1 C3.67 2.65 3.34 4.3 3 6 C2.01 6.33 1.02 6.66 0 7 C-0.66 5.68 -1.32 4.36 -2 3 C-1.34 2.01 -0.68 1.02 0 0 Z " fill="#E38CAE" transform="translate(131,120)"/>
<path d="M0 0 C3.25809569 3.25809569 4.86594915 5.95266218 7 10 C7 10.66 7 11.32 7 12 C5.68 11.67 4.36 11.34 3 11 C2.01 7.37 1.02 3.74 0 0 Z " fill="#DB8EA7" transform="translate(169,42)"/>
<path d="M0 0 C0 0.33 0 0.66 0 1 C-1.72856459 1.4813341 -3.45788071 1.95996971 -5.1875 2.4375 C-6.63189453 2.83775391 -6.63189453 2.83775391 -8.10546875 3.24609375 C-10.72663697 3.92880018 -13.338935 4.49892195 -16 5 C-16 4.34 -16 3.68 -16 3 C-11.37347931 -1.1479151 -5.81806416 -0.27510986 0 0 Z " fill="#FCE3F0" transform="translate(165,37)"/>
<path d="M0 0 C0 0.99 0 1.98 0 3 C-0.66 3 -1.32 3 -2 3 C-2 3.66 -2 4.32 -2 5 C-1.34 5.33 -0.68 5.66 0 6 C-0.99 6.99 -1.98 7.98 -3 9 C-3 8.34 -3 7.68 -3 7 C-3.99 7 -4.98 7 -6 7 C-4.60667426 3.63279613 -3.0210714 2.0140476 0 0 Z " fill="#EABBC4" transform="translate(104,177)"/>
<path d="M0 0 C0.99 0.33 1.98 0.66 3 1 C3.33 2.98 3.66 4.96 4 7 C3.01 6.34 2.02 5.68 1 5 C-0.65549531 4.61500109 -2.3222433 4.27206865 -4 4 C-2.68 2.68 -1.36 1.36 0 0 Z " fill="#E287A6" transform="translate(121,127)"/>
<path d="M0 0 C-0.33 1.65 -0.66 3.3 -1 5 C-2.98 5.66 -4.96 6.32 -7 7 C-6.34 5.68 -5.68 4.36 -5 3 C-5.66 2.67 -6.32 2.34 -7 2 C-2.25 0 -2.25 0 0 0 Z " fill="#4E072D" transform="translate(127,120)"/>
<path d="M0 0 C0.99 0.66 1.98 1.32 3 2 C-0.625 7.875 -0.625 7.875 -4 9 C-2.25 2.25 -2.25 2.25 0 0 Z " fill="#EFC6D3" transform="translate(195,96)"/>
<path d="M0 0 C1.46132217 2.92264434 2.34099246 4.92463146 3 8 C5.97 8.495 5.97 8.495 9 9 C9 9.33 9 9.66 9 10 C6.03 10 3.06 10 0 10 C0 6.7 0 3.4 0 0 Z " fill="#C26D8A" transform="translate(55,64)"/>
<path d="M0 0 C3 1 3 1 4 2 C4.66 1.67 5.32 1.34 6 1 C4.84826645 3.46800047 3.95216435 5.04783565 2 7 C0.68 5.02 -0.64 3.04 -2 1 C-1.34 0.67 -0.68 0.34 0 0 Z " fill="#E78AA6" transform="translate(135,128)"/>
<path d="M0 0 C2.99324263 1.0975223 3.84610901 1.67682892 5.25 4.625 C5.4975 5.40875 5.745 6.1925 6 7 C3.50638429 5.79618552 1.31856917 4.54571278 -1 3 C-0.67 2.01 -0.34 1.02 0 0 Z " fill="#FAAFC5" transform="translate(86,84)"/>
<path d="M0 0 C1.66905241 3.33810482 2.8741386 6.46157845 4 10 C2.35 9.67 0.7 9.34 -1 9 C-0.67 6.03 -0.34 3.06 0 0 Z " fill="#D27590" transform="translate(117,148)"/>
<path d="M0 0 C0.433125 0.9590625 0.433125 0.9590625 0.875 1.9375 C1.82823451 4.15206079 1.82823451 4.15206079 4 5 C3.01 6.32 2.02 7.64 1 9 C0.01 6.36 -0.98 3.72 -2 1 C-1.34 0.67 -0.68 0.34 0 0 Z " fill="#E288A7" transform="translate(131,135)"/>
<path d="M0 0 C0.99 0.33 1.98 0.66 3 1 C0.36 3.97 -2.28 6.94 -5 10 C-5 6.60406522 -4.47834052 5.93380119 -2.5 3.3125 C-2.0359375 2.68988281 -1.571875 2.06726563 -1.09375 1.42578125 C-0.7328125 0.95527344 -0.371875 0.48476562 0 0 Z " fill="#CA6989" transform="translate(70,132)"/>
<path d="M0 0 C0.66 0.33 1.32 0.66 2 1 C2 1.99 2 2.98 2 4 C2.33 4 2.66 4 3 4 C3 5.65 3 7.3 3 9 C1.35 7.35 -0.3 5.7 -2 4 C-1.34 2.68 -0.68 1.36 0 0 Z " fill="#FEE9F1" transform="translate(189,107)"/>
<path d="M0 0 C2.62187494 1.04874998 3.79371361 1.64931313 5.25 4.125 C5.4975 4.74375 5.745 5.3625 6 6 C4.35 6 2.7 6 1 6 C0.67 4.02 0.34 2.04 0 0 Z " fill="#EFCBD7" transform="translate(192,73)"/>
<path d="M0 0 C0.99 0.66 1.98 1.32 3 2 C-2.625 5 -2.625 5 -6 5 C-5 2 -5 2 -2.625 0.6875 C-1.75875 0.460625 -0.8925 0.23375 0 0 Z " fill="#D36D8D" transform="translate(155,68)"/>
<path d="M0 0 C-0.33 1.65 -0.66 3.3 -1 5 C-1.33 4.01 -1.66 3.02 -2 2 C-5.16666667 3.83333333 -5.16666667 3.83333333 -7 7 C-7 5.35 -7 3.7 -7 2 C-2.25 0 -2.25 0 0 0 Z " fill="#FDEAEE" transform="translate(65,184)"/>
<path d="M0 0 C0.33 0.99 0.66 1.98 1 3 C-0.32 3.33 -1.64 3.66 -3 4 C-3 6.64 -3 9.28 -3 12 C-3.33 12 -3.66 12 -4 12 C-4 8.7 -4 5.4 -4 2 C-2.68 1.34 -1.36 0.68 0 0 Z " fill="#E87099" transform="translate(175,120)"/>
<path d="M0 0 C1.32 0 2.64 0 4 0 C4 0.66 4 1.32 4 2 C1.38058783 3.74627478 -0.03824877 4.38722388 -3 5 C-3.33 4.01 -3.66 3.02 -4 2 C-2.68 2 -1.36 2 0 2 C0 1.34 0 0.68 0 0 Z " fill="#59032C" transform="translate(119,97)"/>
<path d="M0 0 C0.66 0 1.32 0 2 0 C2.33 2.64 2.66 5.28 3 8 C3.99 8 4.98 8 6 8 C6 8.66 6 9.32 6 10 C5.34 10 4.68 10 4 10 C3.67 10.66 3.34 11.32 3 12 C2.01 8.04 1.02 4.08 0 0 Z " fill="#E57196" transform="translate(143,48)"/>
<path d="M0 0 C2.31 0 4.62 0 7 0 C6.67 0.99 6.34 1.98 6 3 C1.78947368 5 1.78947368 5 0 5 C0 3.35 0 1.7 0 0 Z " fill="#F1CED7" transform="translate(108,29)"/>
<path d="M0 0 C1.65 0.99 3.3 1.98 5 3 C3.02 3.99 3.02 3.99 1 5 C-0.32 4.01 -1.64 3.02 -3 2 C-2.01 1.34 -1.02 0.68 0 0 Z " fill="#FCE4EF" transform="translate(100,185)"/>
<path d="M0 0 C0.66 0.33 1.32 0.66 2 1 C2 1.66 2 2.32 2 3 C2.66 3 3.32 3 4 3 C3 6 3 6 1 8 C-1 5 -1 5 -0.625 2.3125 C-0.41875 1.549375 -0.2125 0.78625 0 0 Z " fill="#F795B7" transform="translate(122,131)"/>
<path d="M0 0 C1.65 0 3.3 0 5 0 C3.515 3.96 3.515 3.96 2 8 C1.67 8 1.34 8 1 8 C0.67 5.36 0.34 2.72 0 0 Z " fill="#48062D" transform="translate(96,112)"/>
<path d="M0 0 C1.45880109 0.14107747 2.91703551 0.28802415 4.375 0.4375 C5.59316406 0.55931641 5.59316406 0.55931641 6.8359375 0.68359375 C9 1 9 1 11 2 C10 3 10 3 6.4375 3.0625 C5.303125 3.041875 4.16875 3.02125 3 3 C2.67 3.66 2.34 4.32 2 5 C2 4.34 2 3.68 2 3 C1.01 2.67 0.02 2.34 -1 2 C-0.67 1.34 -0.34 0.68 0 0 Z " fill="#F598B2" transform="translate(132,95)"/>
<path d="M0 0 C0.66 0 1.32 0 2 0 C2.33 0.66 2.66 1.32 3 2 C4.97888961 2.72693904 6.97954558 3.39816251 9 4 C8.34 4.66 7.68 5.32 7 6 C4.36 4.68 1.72 3.36 -1 2 C-0.67 1.34 -0.34 0.68 0 0 Z " fill="#E08FA9" transform="translate(107,188)"/>
<path d="M0 0 C1.32 0.33 2.64 0.66 4 1 C2.625 3.5 2.625 3.5 1 6 C0.34 6 -0.32 6 -1 6 C-1.33 4.68 -1.66 3.36 -2 2 C-1.34 2 -0.68 2 0 2 C0 1.34 0 0.68 0 0 Z " fill="#E48BA8" transform="translate(100,135)"/>
<path d="M0 0 C0.94875 0.04125 1.8975 0.0825 2.875 0.125 C1.555 1.445 0.235 2.765 -1.125 4.125 C-2.445 3.465 -3.765 2.805 -5.125 2.125 C-3.125 0.125 -3.125 0.125 0 0 Z " fill="#CA678A" transform="translate(146.125,72.875)"/>
<path d="M0 0 C0.99 0.33 1.98 0.66 3 1 C1.515 3.475 1.515 3.475 0 6 C-0.99 5.67 -1.98 5.34 -3 5 C-2.67 4.01 -2.34 3.02 -2 2 C-1.34 2 -0.68 2 0 2 C0 1.34 0 0.68 0 0 Z " fill="#EDCED3" transform="translate(102,30)"/>
<path d="M0 0 C1.32 0.66 2.64 1.32 4 2 C-3.28571429 5.42857143 -3.28571429 5.42857143 -8 5 C-7.4225 4.731875 -6.845 4.46375 -6.25 4.1875 C-3.9674132 2.98280141 -2.0262058 1.59201885 0 0 Z " fill="#EFCED4" transform="translate(91,188)"/>
<path d="M0 0 C0.99 0.33 1.98 0.66 3 1 C1.37660195 2.70884005 -0.29319053 4.37446717 -2 6 C-2.66 6 -3.32 6 -4 6 C-2.84826645 3.53199953 -1.95216435 1.95216435 0 0 Z " fill="#620A28" transform="translate(99,130)"/>
<path d="M0 0 C2.64 0.66 5.28 1.32 8 2 C6.68 2.99 5.36 3.98 4 5 C4 4.34 4 3.68 4 3 C2.68 3 1.36 3 0 3 C0 2.01 0 1.02 0 0 Z " fill="#D483A2" transform="translate(108,129)"/>
<path d="M0 0 C1.98 0 3.96 0 6 0 C6.33 0.99 6.66 1.98 7 3 C4.36 2.67 1.72 2.34 -1 2 C-0.67 1.34 -0.34 0.68 0 0 Z " fill="#FDBCCF" transform="translate(74,123)"/>
<path d="M0 0 C1.485 0.99 1.485 0.99 3 2 C3 3.32 3 4.64 3 6 C2.01 6 1.02 6 0 6 C0 4.02 0 2.04 0 0 Z " fill="#E4608D" transform="translate(58,65)"/>
<path d="M0 0 C0.33 0.99 0.66 1.98 1 3 C0.67 3.66 0.34 4.32 0 5 C-0.66 5 -1.32 5 -2 5 C-2.33 5.99 -2.66 6.98 -3 8 C-3.66 7.67 -4.32 7.34 -5 7 C-3.625 4.5 -3.625 4.5 -2 2 C-1.34 2 -0.68 2 0 2 C0 1.34 0 0.68 0 0 Z " fill="#DB90A9" transform="translate(63,48)"/>
<path d="M0 0 C0.99 0.33 1.98 0.66 3 1 C3.33 3.31 3.66 5.62 4 8 C1.65941363 5.87219421 0.29299694 3.88437779 -1 1 C-0.67 0.67 -0.34 0.34 0 0 Z " fill="#FBE9F2" transform="translate(170,40)"/>
<path d="M0 0 C0.66 1.32 1.32 2.64 2 4 C0.6875 5.5 0.6875 5.5 -1 7 C-1.99 7 -2.98 7 -4 7 C-3.67 6.01 -3.34 5.02 -3 4 C-2.34 4 -1.68 4 -1 4 C-0.67 2.68 -0.34 1.36 0 0 Z " fill="#F3CFD7" transform="translate(97,36)"/>
</svg>
